<svg width="52" height="52" viewBox="0 0 52 52" fill="none" xmlns="http://www.w3.org/2000/svg">
<path d="M17.938 19.9534H34.062M17.938 27.0077H29.0233" stroke="url(#paint0_linear_10_140)" stroke-width="3.02326" stroke-linecap="round"/>
<path d="M4.33337 22.9767C4.33337 23.3776 4.49263 23.7621 4.77612 24.0456C5.05961 24.3291 5.44409 24.4884 5.845 24.4884C6.24591 24.4884 6.6304 24.3291 6.91389 24.0456C7.19737 23.7621 7.35663 23.3776 7.35663 22.9767H4.33337ZM8.00966 33.3082C7.85624 32.9378 7.56195 32.6435 7.19153 32.49C6.82111 32.3365 6.4049 32.3365 6.03446 32.4899C5.66402 32.6433 5.3697 32.9376 5.21624 33.308C5.06278 33.6785 5.06275 34.0947 5.21617 34.4651L8.00966 33.3082ZM29.4909 45.6915L30.5833 43.8453L27.9833 42.3054L26.8889 44.1516L29.4909 45.6915ZM21.4168 43.8453L22.5092 45.6915L25.1092 44.1516L24.0188 42.3054L21.4168 43.8453ZM26.8889 44.1516C26.7947 44.3024 26.6637 44.4267 26.5082 44.5129C26.3527 44.5991 26.1778 44.6444 26.0001 44.6444C25.8223 44.6444 25.6474 44.5991 25.4919 44.5129C25.3364 44.4267 25.2054 44.3024 25.1112 44.1516L22.5092 45.6915C24.0672 48.3258 27.9309 48.3258 29.4909 45.6915L26.8889 44.1516ZM22.9768 7.35657H29.0233V4.33331H22.9768V7.35657ZM44.6435 22.9767V24.9922H47.6667V22.9767H44.6435ZM17.541 38.5808C15.0095 38.5364 13.6833 38.3752 12.6433 37.9439L11.4884 40.7374C13.1109 41.4106 14.9571 41.5617 17.4886 41.6061L17.541 38.5808ZM5.21617 34.4651C5.79858 35.8713 6.65225 37.1489 7.72845 38.2251C8.80465 39.3013 10.0823 40.155 11.4884 40.7374L12.6433 37.9439C10.5445 37.0745 8.87904 35.407 8.00966 33.3082L5.21617 34.4651ZM44.6435 24.9922C44.6435 27.3605 44.6435 29.0616 44.5508 30.4039C44.4601 31.7321 44.2867 32.5988 43.9925 33.3082L46.784 34.4651C47.2576 33.3243 47.4652 32.0909 47.568 30.6095C47.6688 29.1402 47.6667 27.3202 47.6667 24.9922H44.6435ZM34.5115 41.602C37.043 41.5597 38.8892 41.4106 40.5117 40.7374L39.3548 37.9439C38.3168 38.3752 36.9906 38.5364 34.4612 38.5808L34.5115 41.602ZM43.9925 33.3082C43.1231 35.407 41.4556 37.0745 39.3568 37.9439L40.5117 40.7374C41.9178 40.155 43.1955 39.3013 44.2717 38.2251C45.3479 37.1489 46.2015 35.8713 46.784 34.4651L43.9925 33.3082ZM29.0233 7.35657C32.3509 7.35657 34.7413 7.35657 36.6056 7.53595C38.4478 7.7113 39.6188 8.04588 40.554 8.61828L42.1322 6.04045C40.6427 5.12944 38.9537 4.72231 36.8918 4.52479C34.8522 4.3313 32.2925 4.33331 29.0233 4.33331V7.35657ZM47.6667 22.9767C47.6667 19.7076 47.6667 17.1499 47.4733 15.1082C47.2777 13.0463 46.8706 11.3553 45.9596 9.86789L43.3798 11.446C43.9542 12.3812 44.2888 13.5522 44.4641 15.3964C44.6415 17.2588 44.6435 19.6491 44.6435 22.9767H47.6667ZM40.552 8.61828C41.7052 9.3243 42.6749 10.2933 43.3818 11.446L45.9596 9.86789C45.0038 8.30785 43.6922 6.99626 42.1322 6.04045L40.552 8.61828ZM22.9768 4.33331C19.7077 4.33331 17.15 4.33331 15.1083 4.52479C13.0464 4.72231 11.3554 5.12944 9.86795 6.04045L11.4461 8.62029C12.3813 8.04588 13.5523 7.7113 15.3965 7.53595C17.2588 7.35859 19.6492 7.35657 22.9768 7.35657V4.33331ZM7.35663 22.9767C7.35663 19.6491 7.35663 17.2588 7.53601 15.3944C7.71136 13.5522 8.04594 12.3812 8.61834 11.446L6.04051 9.86991C5.1295 11.3574 4.72237 13.0463 4.52485 15.1082C4.33337 17.1519 4.33337 19.7076 4.33337 22.9767H7.35663ZM9.86795 6.04045C8.30791 6.99626 6.99632 8.30986 6.04051 9.86991L8.62035 11.446C9.32606 10.2938 10.2943 9.3248 11.4461 8.61828L9.86795 6.04045ZM24.0168 42.3054C23.6097 41.6141 23.2509 41.0034 22.9002 40.5237C22.5409 39.9966 22.072 39.5531 21.5256 39.2237L20.0059 41.8378C20.1007 41.8943 20.2317 41.995 20.4574 42.3054C20.7013 42.64 20.9774 43.1036 21.4168 43.8453L24.0168 42.3054ZM17.4886 41.602C18.3754 41.6181 18.9337 41.6302 19.361 41.6766C19.7601 41.7209 19.9152 41.7854 20.0059 41.8378L21.5256 39.2237C20.9624 38.9085 20.3372 38.72 19.6935 38.6715C19.0929 38.605 18.3714 38.5949 17.541 38.5808L17.4886 41.602ZM30.5833 43.8453C31.0227 43.1056 31.2988 42.64 31.5427 42.3054C31.7684 41.995 31.8994 41.8943 31.9942 41.8378L30.4745 39.2237C29.89 39.5664 29.4667 40.0199 29.0999 40.5237C28.7512 41.0034 28.3904 41.6121 27.9813 42.3054L30.5833 43.8453ZM34.4612 38.5808C33.6308 38.5949 32.9072 38.605 32.3066 38.6715C31.6798 38.742 31.065 38.8811 30.4745 39.2237L31.9942 41.8378C32.0849 41.7854 32.2401 41.7209 32.6391 41.6766C33.0664 41.6302 33.6267 41.6161 34.5136 41.602L34.4612 38.5808Z" fill="url(#paint1_linear_10_140)"/>
<defs>
<linearGradient id="paint0_linear_10_140" x1="19.9535" y1="19.9534" x2="23.3872" y2="30.0804" gradientUnits="userSpaceOnUse">
<stop stop-color="#467EC3"/>
<stop offset="1" stop-color="#041430"/>
</linearGradient>
<linearGradient id="paint1_linear_10_140" x1="9.75005" y1="4.33331" x2="43.3339" y2="47.6668" gradientUnits="userSpaceOnUse">
<stop stop-color="#467EC3"/>
<stop offset="1" stop-color="#041430"/>
</linearGradient>
</defs>
</svg>
