<svg width="273" height="41" viewBox="0 0 273 41" fill="none" xmlns="http://www.w3.org/2000/svg">
<path d="M22.3302 0.0427551H28.1282L36.2593 34.9114H14.1991L22.3302 0.0427551Z" fill="#FAB805"/>
<path fill-rule="evenodd" clip-rule="evenodd" d="M20.7558 0H14.8858L0 34.8692H12.6299L20.7558 0Z" fill="#356EB4"/>
<path fill-rule="evenodd" clip-rule="evenodd" d="M29.6904 0.0454836H35.5603L50.6917 34.9146H37.8163L29.6904 0.0454836Z" fill="#356EB4"/>
<path fill-rule="evenodd" clip-rule="evenodd" d="M70.3454 8.94384L62.3408 30.1664H58.4048L60.2425 25.2931L53.6207 8.94384H57.6626L62.0889 20.3117L66.352 8.94384H70.3454ZM86.5798 8.94384L79.5825 19.4765L86.6726 30.1664H82.074L75.9379 20.233V30.1664H72.1477V8.94384H75.9379V18.9656L82.3524 8.94384H86.5798ZM101.33 15.4876C101.33 17.7277 100.707 19.4667 99.4571 20.7047C98.2068 21.9426 96.5636 22.5616 94.5271 22.5616H92.1329V35.2726L88.3426 40.1388V8.94384H94.0941C95.2426 8.94384 96.2056 9.05198 96.9832 9.26813C98.3615 9.64143 99.4305 10.3783 100.19 11.4788C100.95 12.5792 101.33 13.9155 101.33 15.4876ZM94.1294 12.7462H92.1329V18.7592H94.103C96.4487 18.7592 97.6193 17.762 97.6193 15.7675C97.6193 14.672 97.2747 13.8712 96.5812 13.3603C96.0113 12.9526 95.1941 12.7462 94.1294 12.7462Z" fill="#FAB805" stroke="#FAB805" stroke-width="0.129979" stroke-miterlimit="22.9256"/>
<path d="M67.228 32.3152H273L270.806 34.9148H65.0339L67.228 32.3152Z" fill="#356EB4"/>
<path d="M108.235 28.764H105.095V18.9702H108.235V28.764ZM108.322 17.5749H105.008V15.194H108.322V17.5749ZM121.089 28.764H117.95V24.5866H114.339V28.764H111.2V18.9702H114.339V22.3453H117.95V18.9702H121.089V28.764ZM139.037 23.6447C139.037 24.4878 138.93 25.2407 138.715 25.9035C138.499 26.5605 138.191 27.1128 137.79 27.5605C137.383 28.014 136.924 28.3512 136.412 28.5721C135.906 28.7872 135.331 28.8948 134.685 28.8948C134.209 28.8948 133.813 28.8366 133.499 28.7204C133.185 28.6041 132.935 28.4994 132.749 28.4064V32.357H129.645V28.3977C129.406 28.5372 129.119 28.6564 128.781 28.7552C128.444 28.8483 128.031 28.8948 127.543 28.8948C126.229 28.8948 125.203 28.4558 124.464 27.5779C123.726 26.7 123.357 25.4849 123.357 23.9325C123.357 23.1011 123.467 22.3714 123.688 21.7435C123.915 21.1098 124.226 20.5691 124.621 20.1214C125.005 19.6912 125.462 19.3627 125.991 19.1359C126.52 18.9092 127.078 18.7958 127.665 18.7958C128.142 18.7958 128.537 18.8511 128.851 18.9615C129.171 19.072 129.435 19.1883 129.645 19.3104V15.194H132.749V19.3016C132.994 19.1795 133.308 19.0662 133.691 18.9615C134.081 18.8511 134.499 18.7958 134.947 18.7958C136.255 18.7958 137.264 19.2173 137.973 20.0604C138.683 20.8976 139.037 22.0924 139.037 23.6447ZM135.854 23.8104C135.854 22.8337 135.665 22.1243 135.287 21.6825C134.915 21.2348 134.331 21.011 133.534 21.011C133.389 21.011 133.255 21.0168 133.133 21.0284C133.017 21.04 132.889 21.0604 132.749 21.0895V26.6186C132.871 26.6418 132.994 26.6593 133.116 26.6709C133.238 26.6825 133.371 26.6884 133.517 26.6884C134.313 26.6884 134.901 26.4529 135.278 25.982C135.662 25.511 135.854 24.7872 135.854 23.8104ZM129.645 26.6186V21.0807C129.557 21.0633 129.444 21.0488 129.305 21.0371C129.171 21.0197 129.023 21.011 128.86 21.011C128.063 21.011 127.476 21.2464 127.098 21.7174C126.726 22.1883 126.54 22.9122 126.54 23.8889C126.54 24.8657 126.729 25.5779 127.107 26.0256C127.491 26.4674 128.081 26.6884 128.877 26.6884C128.994 26.6884 129.124 26.6825 129.27 26.6709C129.421 26.6593 129.546 26.6418 129.645 26.6186ZM151.316 23.8715C151.316 25.482 150.846 26.7523 149.904 27.6826C148.968 28.607 147.651 29.0692 145.953 29.0692C144.255 29.0692 142.936 28.607 141.994 27.6826C141.058 26.7523 140.59 25.482 140.59 23.8715C140.59 22.2494 141.061 20.9761 142.002 20.0516C142.95 19.1272 144.267 18.665 145.953 18.665C147.662 18.665 148.982 19.1301 149.912 20.0604C150.848 20.9906 151.316 22.261 151.316 23.8715ZM147.453 26.2523C147.657 26.0023 147.808 25.7029 147.907 25.354C148.011 24.9994 148.064 24.511 148.064 23.8889C148.064 23.3133 148.011 22.8308 147.907 22.4412C147.802 22.0517 147.657 21.7406 147.471 21.5081C147.284 21.2697 147.061 21.1011 146.799 21.0022C146.537 20.9034 146.255 20.854 145.953 20.854C145.651 20.854 145.38 20.8947 145.142 20.9761C144.909 21.0575 144.686 21.2203 144.47 21.4645C144.279 21.6912 144.125 22.0023 144.008 22.3976C143.898 22.793 143.843 23.2901 143.843 23.8889C143.843 24.4238 143.892 24.8889 143.991 25.2843C144.09 25.6738 144.235 25.9878 144.427 26.2261C144.613 26.4529 144.834 26.6186 145.09 26.7232C145.351 26.8279 145.648 26.8802 145.979 26.8802C146.264 26.8802 146.534 26.8337 146.79 26.7407C147.052 26.6418 147.273 26.4791 147.453 26.2523ZM163.788 23.7319C163.788 24.5401 163.663 25.2756 163.413 25.9384C163.168 26.6012 162.846 27.1477 162.445 27.5779C162.026 28.0314 161.552 28.3744 161.023 28.607C160.494 28.8396 159.927 28.9558 159.322 28.9558C158.764 28.9558 158.29 28.8948 157.901 28.7727C157.511 28.6564 157.113 28.4907 156.706 28.2756V32.357H153.567V18.9702H156.706V19.9906C157.189 19.6069 157.68 19.2958 158.18 19.0575C158.686 18.8191 159.267 18.6999 159.924 18.6999C161.145 18.6999 162.093 19.1476 162.767 20.0429C163.447 20.9383 163.788 22.168 163.788 23.7319ZM160.552 23.793C160.552 22.8395 160.389 22.1476 160.064 21.7174C159.738 21.2871 159.224 21.072 158.52 21.072C158.224 21.072 157.918 21.1185 157.604 21.2115C157.29 21.2988 156.991 21.4267 156.706 21.5953V26.5227C156.915 26.6041 157.139 26.6564 157.378 26.6796C157.616 26.7029 157.851 26.7145 158.084 26.7145C158.915 26.7145 159.535 26.4732 159.942 25.9907C160.349 25.5023 160.552 24.7697 160.552 23.793ZM177.916 28.764H174.855V22.6854L172.631 26.6971H171.253L169.029 22.6854V28.764H166.055V18.9702H169.465L171.985 23.418L174.506 18.9702H177.916V28.764ZM185.983 29.0256C185.128 29.0256 184.346 28.9239 183.637 28.7204C182.933 28.5169 182.32 28.2029 181.797 27.7785C181.279 27.3541 180.878 26.8192 180.593 26.1738C180.308 25.5285 180.166 24.7726 180.166 23.9063C180.166 22.9935 180.317 22.2057 180.619 21.5429C180.927 20.8801 181.355 20.3307 181.901 19.8947C182.43 19.4819 183.041 19.1795 183.733 18.9877C184.424 18.7958 185.143 18.6999 185.887 18.6999C186.555 18.6999 187.172 18.7726 187.736 18.9179C188.3 19.0633 188.826 19.2522 189.314 19.4848V22.1621H188.869C188.747 22.0575 188.599 21.9354 188.425 21.7959C188.256 21.6563 188.047 21.5197 187.797 21.386C187.558 21.2581 187.297 21.1534 187.012 21.072C186.727 20.9848 186.395 20.9412 186.018 20.9412C185.18 20.9412 184.535 21.2086 184.081 21.7435C183.634 22.2726 183.41 22.9935 183.41 23.9063C183.41 24.8482 183.64 25.5633 184.099 26.0517C184.564 26.5401 185.221 26.7843 186.07 26.7843C186.465 26.7843 186.82 26.7407 187.134 26.6535C187.454 26.5605 187.718 26.4529 187.927 26.3308C188.125 26.2145 188.3 26.0924 188.451 25.9645C188.602 25.8366 188.741 25.7116 188.869 25.5895H189.314V28.2669C188.82 28.4994 188.302 28.6826 187.762 28.8163C187.227 28.9558 186.634 29.0256 185.983 29.0256ZM201.471 28.764H198.428V22.7726L194.172 28.764H191.573V18.9702H194.616V24.3337L198.558 18.9702H201.471V28.764ZM209.547 29.0256C208.692 29.0256 207.91 28.9239 207.201 28.7204C206.497 28.5169 205.884 28.2029 205.361 27.7785C204.843 27.3541 204.442 26.8192 204.157 26.1738C203.872 25.5285 203.73 24.7726 203.73 23.9063C203.73 22.9935 203.881 22.2057 204.183 21.5429C204.492 20.8801 204.919 20.3307 205.465 19.8947C205.995 19.4819 206.605 19.1795 207.297 18.9877C207.989 18.7958 208.707 18.6999 209.451 18.6999C210.12 18.6999 210.736 18.7726 211.3 18.9179C211.864 19.0633 212.39 19.2522 212.878 19.4848V22.1621H212.434C212.311 22.0575 212.163 21.9354 211.989 21.7959C211.82 21.6563 211.611 21.5197 211.361 21.386C211.122 21.2581 210.861 21.1534 210.576 21.072C210.291 20.9848 209.96 20.9412 209.582 20.9412C208.745 20.9412 208.099 21.2086 207.646 21.7435C207.198 22.2726 206.974 22.9935 206.974 23.9063C206.974 24.8482 207.204 25.5633 207.663 26.0517C208.128 26.5401 208.785 26.7843 209.634 26.7843C210.029 26.7843 210.384 26.7407 210.698 26.6535C211.018 26.5605 211.282 26.4529 211.492 26.3308C211.689 26.2145 211.864 26.0924 212.015 25.9645C212.166 25.8366 212.306 25.7116 212.434 25.5895H212.878V28.2669C212.384 28.4994 211.867 28.6826 211.326 28.8163C210.791 28.9558 210.198 29.0256 209.547 29.0256ZM223.126 21.0982H220.003V28.764H216.864V21.0982H213.742V18.9702H223.126V21.0982ZM234.341 24.4471H227.155C227.201 25.2145 227.492 25.8017 228.027 26.2087C228.567 26.6157 229.361 26.8192 230.408 26.8192C231.07 26.8192 231.713 26.7 232.335 26.4616C232.957 26.2232 233.448 25.9674 233.809 25.6942H234.158V28.2145C233.448 28.4994 232.78 28.7058 232.152 28.8337C231.524 28.9616 230.829 29.0256 230.067 29.0256C228.102 29.0256 226.597 28.5837 225.55 27.7C224.503 26.8163 223.98 25.5575 223.98 23.9238C223.98 22.3075 224.474 21.0284 225.463 20.0865C226.457 19.1388 227.817 18.665 229.544 18.665C231.137 18.665 232.335 19.0691 233.137 19.8772C233.94 20.6796 234.341 21.8366 234.341 23.3482V24.4471ZM231.219 22.6069C231.201 21.9499 231.038 21.4557 230.73 21.1243C230.422 20.7929 229.942 20.6272 229.291 20.6272C228.687 20.6272 228.19 20.7842 227.8 21.0982C227.41 21.4121 227.192 21.915 227.146 22.6069H231.219ZM248.417 28.764H245.355V22.6854L243.132 26.6971H241.754L239.53 22.6854V28.764H236.556V18.9702H239.966L242.486 23.418L245.007 18.9702H248.417V28.764ZM261.28 28.764H258.236V22.7726L253.981 28.764H251.382V18.9702H254.425V24.3337L258.367 18.9702H261.28V28.764Z" fill="#356EB4"/>
</svg>
